TITLE ""
FILE "P1Q_t_1369-1377.mp3" MP3
  TRACK 01 AUDIO
    TITLE "P1Q_t_1369-1377_01"
    INDEX 01 00:00:00
  TRACK 02 AUDIO
    TITLE "P1Q_t_1369-1377_02"
    INDEX 01 00:01:29
  TRACK 03 AUDIO
    TITLE "P1Q_t_1369-1377_03"
    INDEX 01 00:01:51
  TRACK 04 AUDIO
    TITLE "P1Q_t_1369-1377_04"
    INDEX 01 00:04:57
  TRACK 05 AUDIO
    TITLE "P1Q_t_1369-1377_05"
    INDEX 01 00:05:02
  TRACK 06 AUDIO
    TITLE "P1Q_t_1369-1377_06"
    INDEX 01 00:10:32
  TRACK 07 AUDIO
    TITLE "P1Q_t_1369-1377_07"
    INDEX 01 00:11:00
  TRACK 08 AUDIO
    TITLE "P1Q_t_1369-1377_08"
    INDEX 01 00:12:00
  TRACK 09 AUDIO
    TITLE "P1Q_t_1369-1377_09"
    INDEX 01 00:12:19
  TRACK 10 AUDIO
    TITLE "P1Q_t_1369-1377_10"
    INDEX 01 00:14:30
  TRACK 11 AUDIO
    TITLE "P1Q_t_1369-1377_11"
    INDEX 01 00:14:50
  TRACK 12 AUDIO
    TITLE "P1Q_t_1369-1377_12"
    INDEX 01 00:18:10
  TRACK 13 AUDIO
    TITLE "P1Q_t_1369-1377_13"
    INDEX 01 00:18:55
  TRACK 14 AUDIO
    TITLE "P1Q_t_1369-1377_14"
    INDEX 01 00:20:07
  TRACK 15 AUDIO
    TITLE "P1Q_t_1369-1377_15"
    INDEX 01 00:20:52
  TRACK 16 AUDIO
    TITLE "P1Q_t_1369-1377_16"
    INDEX 01 00:21:58
  TRACK 17 AUDIO
    TITLE "P1Q_t_1369-1377_17"
    INDEX 01 00:22:02
  TRACK 18 AUDIO
    TITLE "P1Q_t_1369-1377_18"
    INDEX 01 00:24:38
  TRACK 19 AUDIO
    TITLE "P1Q_t_1369-1377_19"
    INDEX 01 00:24:56
  TRACK 20 AUDIO
    TITLE "P1Q_t_1369-1377_20"
    INDEX 01 00:28:40
  TRACK 21 AUDIO
    TITLE "P1Q_t_1369-1377_21"
    INDEX 01 00:29:10
  TRACK 22 AUDIO
    TITLE "P1Q_t_1369-1377_22"
    INDEX 01 00:30:17
  TRACK 23 AUDIO
    TITLE "P1Q_t_1369-1377_23"
    INDEX 01 00:30:39
  TRACK 24 AUDIO
    TITLE "P1Q_t_1369-1377_24"
    INDEX 01 00:34:21
  TRACK 25 AUDIO
    TITLE "P1Q_t_1369-1377_25"
    INDEX 01 00:34:43
  TRACK 26 AUDIO
    TITLE "P1Q_t_1369-1377_26"
    INDEX 01 00:40:33
  TRACK 27 AUDIO
    TITLE "P1Q_t_1369-1377_27"
    INDEX 01 00:41:05
  TRACK 28 AUDIO
    TITLE "P1Q_t_1369-1377_28"
    INDEX 01 00:42:19
  TRACK 29 AUDIO
    TITLE "P1Q_t_1369-1377_29"
    INDEX 01 00:42:40
  TRACK 30 AUDIO
    TITLE "P1Q_t_1369-1377_30"
    INDEX 01 00:44:72
  TRACK 31 AUDIO
    TITLE "P1Q_t_1369-1377_31"
    INDEX 01 00:45:15
  TRACK 32 AUDIO
    TITLE "P1Q_t_1369-1377_32"
    INDEX 01 00:49:17
  TRACK 33 AUDIO
    TITLE "P1Q_t_1369-1377_33"
    INDEX 01 00:49:62
  TRACK 34 AUDIO
    TITLE "P1Q_t_1369-1377_34"
    INDEX 01 00:51:04
  TRACK 35 AUDIO
    TITLE "P1Q_t_1369-1377_35"
    INDEX 01 00:51:27
  TRACK 36 AUDIO
    TITLE "P1Q_t_1369-1377_36"
    INDEX 01 00:53:52
  TRACK 37 AUDIO
    TITLE "P1Q_t_1369-1377_37"
    INDEX 01 00:53:71
  TRACK 38 AUDIO
    TITLE "P1Q_t_1369-1377_38"
    INDEX 01 00:57:18
  TRACK 39 AUDIO
    TITLE "P1Q_t_1369-1377_39"
    INDEX 01 00:57:63
  TRACK 40 AUDIO
    TITLE "P1Q_t_1369-1377_40"
    INDEX 01 00:59:05
  TRACK 41 AUDIO
    TITLE "P1Q_t_1369-1377_41"
    INDEX 01 00:59:27
  TRACK 42 AUDIO
    TITLE "P1Q_t_1369-1377_42"
    INDEX 01 01:00:46
  TRACK 43 AUDIO
    TITLE "P1Q_t_1369-1377_43"
    INDEX 01 01:00:65
  TRACK 44 AUDIO
    TITLE "P1Q_t_1369-1377_44"
    INDEX 01 01:05:57
  TRACK 45 AUDIO
    TITLE "P1Q_t_1369-1377_45"
    INDEX 01 01:06:27
  TRACK 46 AUDIO
    TITLE "P1Q_t_1369-1377_46"
    INDEX 01 01:07:50
  TRACK 47 AUDIO
    TITLE "P1Q_t_1369-1377_47"
    INDEX 01 01:07:69
  TRACK 48 AUDIO
    TITLE "P1Q_t_1369-1377_48"
    INDEX 01 01:14:73
  TRACK 49 AUDIO
    TITLE "P1Q_t_1369-1377_49"
    INDEX 01 01:15:20
  TRACK 50 AUDIO
    TITLE "P1Q_t_1369-1377_50"
    INDEX 01 01:19:35
  TRACK 51 AUDIO
    TITLE "P1Q_t_1369-1377_51"
    INDEX 01 01:20:07
  TRACK 52 AUDIO
    TITLE "P1Q_t_1369-1377_52"
    INDEX 01 01:21:15
  TRACK 53 AUDIO
    TITLE "P1Q_t_1369-1377_53"
    INDEX 01 01:21:36
  TRACK 54 AUDIO
    TITLE "P1Q_t_1369-1377_54"
    INDEX 01 01:23:57
  TRACK 55 AUDIO
    TITLE "P1Q_t_1369-1377_55"
    INDEX 01 01:24:01
  TRACK 56 AUDIO
    TITLE "P1Q_t_1369-1377_56"
    INDEX 01 01:27:70
